# xmcd CD database file
#
# Track frame offsets:
#	150
#	12083
#	25755
#	40038
#	52578
#	66620
#	81628
#	95288
#	110538
#	123885
#	136589
#	160796
#	173446
#	186586
#	200631
#	214202
#	266537
#
# Disc length: 3943 seconds
#
# Revision: 0
# Processed by: cddbd v1.5.2PL0 Copyright (c) Steve Scherf et al.
# Submitted via: CDex 1.51
#
DISCID=e20f6511
DTITLE=Dexter Gordon - JAZZ BASICS
DYEAR=1900
DGENRE=Jazz
TTITLE0=Groovin' High
TTITLE1=Blow, Mr .Dexter
TTITLE2=Dexter's Cuttin' Out
TTITLE3=Dexter's Minor Mad
TTITLE4=Long Tall Dexter
TTITLE5=Dexter Rides Again
TTITLE6=Dexter Digs In
TTITLE7=It's The Talk Of The Town
TTITLE8=Ghost Of A Chance
TTITLE9=Sweet And Lovely
TTITLE10=The Duel Pt. 1 and 2
TTITLE11=Dexter's Riff
TTITLE12=Dexter's Mood
TTITLE13=Index
TTITLE14=Dextivity
TTITLE15=The Chase
TTITLE16=Autumn In New York
EXTD=
EXTT0=
EXTT1=
EXTT2=
EXTT3=
EXTT4=
EXTT5=
EXTT6=
EXTT7=
EXTT8=
EXTT9=
EXTT10=
EXTT11=
EXTT12=
EXTT13=
EXTT14=
EXTT15=
EXTT16=
PLAYORDER=
